<?xml version="1.0" encoding="UTF-8" standalone="no"?>
<!-- Created with Inkscape (http://www.inkscape.org/) -->

<svg
   width="512"
   height="512"
   viewBox="0 0 512 512"
   version="1.1"
   id="svg1"
   xml:space="preserve"
   xmlns:xlink="http://www.w3.org/1999/xlink"
   xmlns="http://www.w3.org/2000/svg"
   xmlns:svg="http://www.w3.org/2000/svg"><defs
     id="defs1"><linearGradient
       id="linearGradient23"><stop
         style="stop-color:#ff6f61;stop-opacity:1;"
         offset="0"
         id="stop23" /><stop
         style="stop-color:#4e7d6a;stop-opacity:1;"
         offset="0.37916118"
         id="stop25" /></linearGradient><linearGradient
       id="linearGradient12"><stop
         style="stop-color:#ff6f61;stop-opacity:1;"
         offset="0"
         id="stop12" /><stop
         style="stop-color:#ff6f61;stop-opacity:0;"
         offset="1"
         id="stop13" /></linearGradient><linearGradient
       id="swatch8"><stop
         style="stop-color:#000000;stop-opacity:1;"
         offset="0"
         id="stop8" /></linearGradient><linearGradient
       xlink:href="#linearGradient12"
       id="linearGradient13"
       x1="363.47232"
       y1="308.65268"
       x2="365.16107"
       y2="308.65268"
       gradientUnits="userSpaceOnUse"
       gradientTransform="matrix(-0.9593235,0,0,1.0005821,501.75859,-9.0665581)" /><linearGradient
       xlink:href="#linearGradient23"
       id="linearGradient24"
       x1="356.27869"
       y1="314.38171"
       x2="359.5387"
       y2="308.98566"
       gradientUnits="userSpaceOnUse"
       gradientTransform="matrix(0.91368659,0,0,1.2109346,-484.9784,-76.178657)" /></defs><g
     id="layer1"><path
       style="fill:#000000;stroke-width:0.979736"
       d="m 248.41704,117.30778 c 0,0 63.08504,-24.021565 0,0 z"
       id="path1" /><path
       style="fill:none;fill-opacity:1;fill-rule:evenodd;stroke:#4e7d6a;stroke-width:13.1;stroke-linejoin:bevel;stroke-dasharray:none;stroke-opacity:1;paint-order:stroke fill markers"
       id="path2"
       d="m 177.31888,145.87833 c -9.63836,1.70189 -14.93955,-9.74824 -13.73058,-17.68309 2.30287,-15.11441 19.3179,-22.09032 32.90555,-18.38567 20.45685,5.57753 29.43965,29.02726 23.04077,48.12801 -8.64888,25.81701 -38.78069,36.8644 -63.35047,27.69587 -31.1934,-11.64021 -44.32624,-48.55339 -32.35097,-78.57293 14.59247,-36.580313 58.33654,-51.80903 93.79539,-37.006069 41.97404,17.522846 59.30476,68.126049 41.66117,109.017859 -20.43976,47.37236 -77.91977,66.80903 -124.24032,46.31626 C 82.275523,202.04075 60.730171,137.67214 84.078063,85.925792 110.3278,27.748023 181.59328,4.0920346 238.7633,30.299332 c 63.58337,29.147243 89.35146,107.315608 60.28156,169.907698 -0.62819,1.35259 -1.27917,2.6946 -1.95253,4.02529"
       transform="matrix(-0.95932352,0,0,1.0005821,445.68299,102.68597)" /><path
       style="fill:url(#linearGradient13);fill-opacity:1;stroke:none;stroke-width:14.1856;stroke-linejoin:bevel;stroke-dasharray:none;stroke-opacity:1;paint-order:stroke fill markers"
       d="m 178.83882,318.6877 c -14.45547,13.34302 -23.80705,-8.77475 -23.80705,-8.77475 L 380.13193,124.97913 c 0,0 -13.91257,0.9033 -19.71944,-5.94811 12.0042,-5.74417 43.59563,-11.66941 43.59563,-11.66941 0,0 -8.50249,30.78542 -14.2968,39.48069 -6.59418,-5.89461 -5.59492,-17.63453 -5.59492,-17.63453 z"
       id="path8" /><rect
       style="fill:url(#linearGradient24);fill-opacity:1;stroke:none;stroke-width:13.4508;stroke-linejoin:bevel;stroke-dasharray:none;stroke-opacity:1;paint-order:stroke fill markers"
       id="rect23"
       width="10.635432"
       height="14.884782"
       x="-164.97955"
       y="297.4068"
       ry="5.0093007"
       transform="scale(-1,1)" /></g></svg>
