<?xml version="1.0" encoding="UTF-8"?>
<!-- Created with Inkscape (http://www.inkscape.org/) -->
<svg width="512" height="512" version="1.1" viewBox="0 0 512 512" xml:space="preserve" xmlns="http://www.w3.org/2000/svg" xmlns:xlink="http://www.w3.org/1999/xlink"><defs><linearGradient id="linearGradient13" x1="363.47" x2="365.16" y1="308.65" y2="308.65" gradientTransform="matrix(-1.8393 0 0 2.0845 698.44 -236.05)" gradientUnits="userSpaceOnUse"><stop stop-color="#ff6f61" offset="0"/><stop stop-color="#ff6f61" stop-opacity="0" offset="1"/></linearGradient><linearGradient id="linearGradient24" x1="356.28" x2="359.54" y1="314.38" y2="308.99" gradientTransform="matrix(1.7518 0 0 2.5227 -666.27 -375.86)" gradientUnits="userSpaceOnUse"><stop stop-color="#ff6f61" offset="0"/><stop stop-color="#4e7d6a" offset=".37916"/></linearGradient></defs><path d="m212.7 27.223s120.96-50.044 0 0z" stroke-width="1.9581"/><path transform="matrix(-1.8393 0 0 2.0845 590.92 -3.2387)" d="m177.32 145.88c-9.6384 1.7019-14.94-9.7482-13.731-17.683 2.3029-15.114 19.318-22.09 32.906-18.386 20.457 5.5775 29.44 29.027 23.041 48.128-8.6489 25.817-38.781 36.864-63.35 27.696-31.193-11.64-44.326-48.553-32.351-78.573 14.592-36.58 58.337-51.809 93.795-37.006 41.974 17.523 59.305 68.126 41.661 109.02-20.44 47.372-77.92 66.809-124.24 46.316-52.774-23.348-74.319-87.716-50.971-139.46 26.25-58.178 97.515-81.834 154.69-55.626 63.583 29.147 89.351 107.32 60.282 169.91-0.62819 1.3526-1.2792 2.6946-1.9525 4.0253" fill="none" stroke="#4e7d6a" stroke-linejoin="bevel" stroke-width="13.1" style="paint-order:stroke fill markers"/><path d="m79.295 446.75c-27.716 27.797-45.646-18.28-45.646-18.28l431.59-385.27s-26.675 1.8818-37.809-12.392c23.016-11.967 83.587-24.311 83.587-24.311s-16.302 64.135-27.412 82.249c-12.643-12.28-10.727-36.738-10.727-36.738z" fill="url(#linearGradient13)" style="paint-order:stroke fill markers"/><rect transform="scale(-1,1)" x="-52.722" y="402.42" width="20.392" height="31.009" ry="10.436" fill="url(#linearGradient24)" style="paint-order:stroke fill markers"/></svg>
